PathFileType  4	(X/Y/Z) /Users/callumsherry/opencap-sandboxes/opencap-core-sandbox/diagnostics/openpose_swapped
DataRate	CameraRate	NumFrames	NumMarkers	Units	OrigDataRate	OrigDataStartFrame	OrigNumFrames
60.0	60.0	13	20	m	60.0	407	651
Frame#	Time	Neck			RShoulder			RElbow			RWrist			LShoulder			LElbow			LWrist			midHip			RHip			RKnee			RAnkle			LHip			LKnee			LAnkle			LBigToe			LSmallToe			LHeel			RBigToe			RSmallToe			RHeel			
		X1	Y1	Z1	X2	Y2	Z2	X3	Y3	Z3	X4	Y4	Z4	X5	Y5	Z5	X6	Y6	Z6	X7	Y7	Z7	X8	Y8	Z8	X9	Y9	Z9	X10	Y10	Z10	X11	Y11	Z11	X12	Y12	Z12	X13	Y13	Z13	X14	Y14	Z14	X15	Y15	Z15	X16	Y16	Z16	X17	Y17	Z17	X18	Y18	Z18	X19	Y19	Z19	X20	Y20	Z20	

407	6.7666667	-0.4936200	1.1208100	-0.1864900	-0.4824900	1.1158300	-0.0031000	-0.5653100	0.8586200	0.1048300	-0.5752100	0.6196900	0.1553900	-0.4687200	1.1297200	-0.3591600	-0.5840200	0.8869300	-0.4640600	-0.5775900	0.6449900	-0.5015100	-0.6210900	0.6983700	-0.1754700	-0.6384900	0.7028200	-0.0457500	-0.4677200	0.4720300	0.0090700	-0.6437200	0.1076000	-0.0424000	-0.6476700	0.6801500	-0.3036000	-0.4474300	0.4575400	-0.3629300	-0.6591200	0.1158700	-0.3130900	-0.4903000	0.0347900	-0.3207700	-0.5163600	0.0391100	-0.3639000	-0.7209700	0.0880000	-0.2877600	-0.5059100	0.0393800	-0.0294300	-0.5088600	0.0633500	0.0213300	-0.7251300	0.0634200	-0.0736200
408	6.7833333	-0.4720600	1.1356800	-0.1809100	-0.4830700	1.1309600	-0.0034100	-0.5481400	0.8763900	0.0988100	-0.5734300	0.6313200	0.1553600	-0.4533100	1.1409500	-0.3622800	-0.5854800	0.9024900	-0.4645100	-0.5796800	0.6559300	-0.5018000	-0.6194000	0.7043100	-0.1749300	-0.6391500	0.7077400	-0.0455700	-0.4650400	0.4778300	0.0090000	-0.6443300	0.1069500	-0.0425200	-0.6493200	0.6905000	-0.3143100	-0.4457100	0.4621800	-0.3619400	-0.6585200	0.1155300	-0.3129300	-0.4901700	0.0351400	-0.3206400	-0.5146900	0.0390700	-0.3634700	-0.7217500	0.0867600	-0.2882500	-0.4907600	0.0508800	-0.0349600	-0.5078700	0.0632400	0.0208100	-0.7276500	0.0576900	-0.0730900
409	6.8000000	-0.4747200	1.1508300	-0.1807000	-0.4821300	1.1449800	-0.0037000	-0.5652300	0.8901700	0.1038600	-0.5757200	0.6420100	0.1550400	-0.4534300	1.1597600	-0.3621800	-0.5844400	0.9192400	-0.4635400	-0.5784400	0.6674800	-0.5012900	-0.6214600	0.7149000	-0.1754100	-0.6572400	0.7160400	-0.0409800	-0.4658800	0.4774700	0.0093600	-0.6438300	0.1076200	-0.0424600	-0.6698200	0.6983000	-0.3112300	-0.4659800	0.4525900	-0.3595800	-0.6586600	0.1162300	-0.3130800	-0.4876700	0.0412800	-0.3195500	-0.5163900	0.0391300	-0.3639100	-0.6995400	0.0961500	-0.2916800	-0.4883800	0.0466700	-0.0346200	-0.5087100	0.0633300	0.0212100	-0.7052900	0.0710800	-0.0788400
410	6.8166667	-0.4732000	1.1699600	-0.1810200	-0.4836500	1.1603900	-0.0040200	-0.5657000	0.9109600	0.1033600	-0.5741100	0.6585300	0.1545400	-0.4548700	1.1797600	-0.3622100	-0.5669400	0.9369300	-0.4560100	-0.5601200	0.6876900	-0.4923000	-0.6420200	0.7225200	-0.1817400	-0.6397300	0.7296800	-0.0458300	-0.4642900	0.4831700	0.0092800	-0.6442200	0.1071100	-0.0425000	-0.6500300	0.7130100	-0.3146000	-0.4652800	0.4572300	-0.3595600	-0.6565300	0.1105900	-0.3121000	-0.4868900	0.0419400	-0.3193500	-0.5122100	0.0460500	-0.3623400	-0.7007700	0.0946300	-0.2921400	-0.4884200	0.0465400	-0.0343600	-0.5078800	0.0631400	0.0208400	-0.7062900	0.0705900	-0.0788800
411	6.8333333	-0.4950300	1.1894300	-0.1871700	-0.4833900	1.1746200	-0.0044700	-0.5833000	0.9198900	0.1087300	-0.5600800	0.6774500	0.1479400	-0.4722800	1.1934300	-0.3690600	-0.5849600	0.9459600	-0.4632500	-0.5600000	0.7045900	-0.4922300	-0.6448900	0.7328500	-0.1826900	-0.6585300	0.7380100	-0.0413400	-0.4665800	0.4776000	0.0091300	-0.6439300	0.1076800	-0.0424700	-0.6508400	0.7243900	-0.3149000	-0.4657200	0.4581300	-0.3588500	-0.6569300	0.1109800	-0.3122400	-0.4872300	0.0413400	-0.3195200	-0.5140100	0.0458700	-0.3628400	-0.6980100	0.0899600	-0.2909900	-0.4882700	0.0465800	-0.0345700	-0.5065100	0.0590600	0.0218200	-0.7052200	0.0710300	-0.0788400
412	6.8500000	-0.4935300	1.2084800	-0.1876000	-0.4849800	1.1991300	-0.0050100	-0.5670800	0.9424300	0.1025300	-0.5763600	0.6960300	0.1530300	-0.4564200	1.2138300	-0.3620300	-0.5680700	0.9684200	-0.4555900	-0.5613400	0.7263900	-0.4919300	-0.6399200	0.7453200	-0.1713100	-0.6584100	0.7490100	-0.0406200	-0.4661100	0.4667000	0.0087700	-0.6446400	0.1071400	-0.0425600	-0.6509200	0.7407800	-0.3147400	-0.4832400	0.4467800	-0.3556300	-0.6565600	0.1103800	-0.3119600	-0.4897900	0.0349700	-0.3205600	-0.5110700	0.0412400	-0.3616900	-0.6986200	0.0887100	-0.2912600	-0.4879800	0.0466300	-0.0343900	-0.5055200	0.0590100	0.0213400	-0.7288600	0.0694000	-0.0731900
413	6.8666667	-0.4957100	1.2240100	-0.1872700	-0.4999300	1.2180400	-0.0005700	-0.5670600	0.9580800	0.1018700	-0.5621100	0.7152400	0.1466100	-0.4555600	1.2371700	-0.3614400	-0.5671000	0.9799100	-0.4547200	-0.5610700	0.7479200	-0.4914100	-0.6444800	0.7554600	-0.1825700	-0.6585700	0.7546900	-0.0414700	-0.4877900	0.4717200	0.0038500	-0.6443600	0.1077400	-0.0425100	-0.6507600	0.7524000	-0.3147500	-0.4855600	0.4581200	-0.3558100	-0.6559100	0.1168900	-0.3115800	-0.4875000	0.0411000	-0.3195900	-0.5127500	0.0412000	-0.3622400	-0.6962500	0.0840700	-0.2903700	-0.4884600	0.0465500	-0.0346300	-0.5087300	0.0633400	0.0212200	-0.7529300	0.0600000	-0.0792400
414	6.8833333	-0.5105500	1.2378300	-0.1836600	-0.5016400	1.2333000	-0.0009400	-0.5675600	0.9784900	0.1015500	-0.5836100	0.7275800	0.1423800	-0.4752300	1.2476600	-0.3689400	-0.5689300	1.0000600	-0.4551300	-0.5620100	0.7588200	-0.4912100	-0.6218300	0.7652000	-0.1758400	-0.6587400	0.7654600	-0.0411400	-0.4870300	0.4819400	0.0033500	-0.6444500	0.1073400	-0.0426500	-0.6509600	0.7526200	-0.3144500	-0.4838500	0.4686900	-0.3552700	-0.6557500	0.1164100	-0.3112900	-0.5073700	0.0326700	-0.3270000	-0.5309800	0.0327500	-0.3694600	-0.6971900	0.0827100	-0.2905600	-0.4882000	0.0465800	-0.0344100	-0.5292700	0.0540000	0.0157000	-0.7085600	0.0770000	-0.0784400
415	6.9000000	-0.5142800	1.2534600	-0.1836000	-0.5021400	1.2474400	-0.0013900	-0.5735000	0.9991800	0.0904600	-0.5848900	0.7491700	0.1415800	-0.4917800	1.2664800	-0.3656200	-0.5684300	1.0213700	-0.4542400	-0.5607500	0.7703000	-0.4800300	-0.6416100	0.7728200	-0.1720000	-0.6586900	0.7711300	-0.0417600	-0.4883800	0.4820000	0.0036400	-0.6438900	0.1080500	-0.0426700	-0.6511800	0.7638600	-0.3147000	-0.4848900	0.4644700	-0.3445600	-0.6556700	0.1112800	-0.3109400	-0.5077100	0.0323100	-0.3270200	-0.5324800	0.0327600	-0.3698500	-0.6959300	0.0840900	-0.2901900	-0.4887400	0.0463900	-0.0345700	-0.5303800	0.0540700	0.0161900	-0.7068700	0.0776000	-0.0784800
416	6.9166667	-0.5137600	1.2773500	-0.1844000	-0.5035200	1.2718500	-0.0018800	-0.5903800	1.0131000	0.0957800	-0.5836500	0.7647300	0.1407500	-0.4939900	1.2865700	-0.3658700	-0.5889700	1.0304200	-0.4521100	-0.5620400	0.7866800	-0.4799300	-0.6401300	0.7791200	-0.1713400	-0.6369800	0.7856600	-0.0358200	-0.5094800	0.4760100	-0.0019300	-0.6446900	0.1125800	-0.0432000	-0.6515000	0.7747900	-0.3145600	-0.5016700	0.4696100	-0.3407600	-0.6546400	0.1111000	-0.3107400	-0.5072400	0.0327100	-0.3268900	-0.5306400	0.0328400	-0.3693600	-0.6964100	0.0827800	-0.2906300	-0.4880000	0.0466600	-0.0343800	-0.5074500	0.0632900	0.0208100	-0.7080800	0.0771500	-0.0784800
417	6.9333333	-0.5155500	1.2967400	-0.1840200	-0.5021800	1.2856400	-0.0021200	-0.5747600	1.0301300	0.0895400	-0.5857700	0.7757400	0.1402900	-0.4928500	1.3004800	-0.3652700	-0.5878800	1.0465800	-0.4511900	-0.5424200	0.8062700	-0.4710900	-0.6224600	0.7926500	-0.1761800	-0.6359500	0.7921500	-0.0362400	-0.5101300	0.4763600	-0.0018000	-0.6449300	0.1137200	-0.0419400	-0.6311900	0.7891700	-0.3184000	-0.5048300	0.4698800	-0.3419900	-0.6550200	0.1114800	-0.3109400	-0.5075200	0.0323300	-0.3270800	-0.5323300	0.0327900	-0.3699200	-0.6943000	0.0782200	-0.2896300	-0.4908000	0.0505800	-0.0352700	-0.5083500	0.0633800	0.0212600	-0.7295800	0.0642100	-0.0724400
418	6.9500000	-0.5304800	1.3160800	-0.1805300	-0.5044700	1.3105900	-0.0029700	-0.5745100	1.0501500	0.0888300	-0.5682100	0.8053000	0.1339600	-0.4954600	1.3204900	-0.3654600	-0.5897000	1.0621700	-0.4515800	-0.5439300	0.8327100	-0.4707500	-0.6219200	0.8093200	-0.1756400	-0.6369400	0.8136600	-0.0361600	-0.5099800	0.4761900	-0.0022900	-0.6453400	0.1131800	-0.0420900	-0.6516000	0.8027000	-0.3144300	-0.5027000	0.4747400	-0.3409700	-0.6550600	0.1050900	-0.3113600	-0.5077800	0.0327200	-0.3271500	-0.5324700	0.0375900	-0.3702200	-0.6727800	0.0858900	-0.2824300	-0.4903700	0.0507500	-0.0350400	-0.5073600	0.0633800	0.0207500	-0.7309500	0.0640500	-0.0725500
419	6.9666667	-0.5321300	1.3260900	-0.1800100	-0.5023600	1.3191300	-0.0028100	-0.5730400	1.0603900	0.0884400	-0.5710500	0.8102300	0.1333400	-0.4953900	1.3295700	-0.3655000	-0.5892600	1.0778700	-0.4509000	-0.5430200	0.8436300	-0.4702300	-0.6454500	0.8218000	-0.1829600	-0.6597200	0.8159200	-0.0425000	-0.5146800	0.4807500	-0.0122900	-0.6445500	0.1193800	-0.0426500	-0.6513300	0.8087000	-0.3147200	-0.5231700	0.4706900	-0.3379200	-0.6569200	0.1106400	-0.3122900	-0.5078200	0.0323600	-0.3272000	-0.5337700	0.0375500	-0.3706500	-0.6950600	0.0725100	-0.2903200	-0.5119300	0.0415000	-0.0407600	-0.5084200	0.0635900	0.0211700	-0.7075900	0.0777500	-0.0782700
